<?xml version="1.0" encoding="UTF-8"?>
<svg version="1.1" xmlns="http://www.w3.org/2000/svg" width="512" height="512">
<path d="M0 0 C168.96 0 337.92 0 512 0 C512 168.96 512 337.92 512 512 C343.04 512 174.08 512 0 512 C0 343.04 0 174.08 0 0 Z " fill="#FEFEFE" transform="translate(0,0)"/>
<path d="M0 0 C1.21171875 0.33644531 2.4234375 0.67289062 3.671875 1.01953125 C40.65100737 12.24817337 70.70377765 40.39384111 88.75 73.9375 C94.92184548 85.86013795 99.05053587 97.92380992 102 111 C102.18771973 111.82661133 102.37543945 112.65322266 102.56884766 113.50488281 C110.71188407 151.23712575 101.41416699 190.71890604 81 223 C75.07786989 231.70324094 68.22824021 239.39075315 61 247 C60.08734375 248.02673828 60.08734375 248.02673828 59.15625 249.07421875 C36.35008082 273.79817942 -1.65692055 288.91173278 -34.82421875 290.41015625 C-54.64593441 290.86569938 -73.23728423 288.33047023 -92 282 C-93.6396875 281.46439453 -93.6396875 281.46439453 -95.3125 280.91796875 C-109.21958264 275.99833827 -122.51103284 268.20819442 -134 259 C-134.50837402 258.59700684 -135.01674805 258.19401367 -135.54052734 257.77880859 C-165.34973026 233.99762931 -186.18587687 198.6918633 -190.54296875 160.515625 C-194.37013095 120.11905993 -184.86566405 80.9869986 -158.9765625 49.23046875 C-156.06543479 45.74584659 -153.05259852 42.36067962 -150 39 C-149.35933594 38.27554688 -148.71867187 37.55109375 -148.05859375 36.8046875 C-137.11198451 25.09891744 -123.15066582 16.28299075 -109 9 C-108.37770508 8.66766357 -107.75541016 8.33532715 -107.11425781 7.99291992 C-101.8695623 5.25412572 -96.49174015 3.27768829 -90.875 1.4375 C-89.95066162 1.13376465 -89.02632324 0.8300293 -88.07397461 0.51708984 C-59.39403153 -8.72580641 -28.84673528 -8.22843683 0 0 Z " fill="#FBDC5B" transform="translate(299,114)"/>
<path d="M0 0 C1.17925049 0.24943359 1.17925049 0.24943359 2.38232422 0.50390625 C20.60547014 4.36519673 37.62013947 11.17228777 54 20 C55.51787109 20.81210938 55.51787109 20.81210938 57.06640625 21.640625 C68.91976736 28.25501686 79.06042789 36.81203133 89 46 C89.9796875 46.86496094 90.959375 47.72992188 91.96875 48.62109375 C98.70628955 54.58689041 104.52728601 60.82236135 110 68 C110.87088409 69.09652072 111.74198742 70.19286734 112.61328125 71.2890625 C137.09676568 102.70735206 149.21728446 143.32650461 149.25 182.8125 C149.25067474 183.54543274 149.25134949 184.27836548 149.25204468 185.0335083 C149.23472342 196.9074739 148.5943894 208.38295654 146 220 C145.82307617 220.7950293 145.64615234 221.59005859 145.46386719 222.40917969 C141.68445089 238.83887025 135.93929322 254.12296816 128.05322266 269.00878906 C127.35742156 270.3242628 126.6694236 271.64389701 125.98974609 272.96777344 C117.41430576 289.63740057 105.52027932 306.00207134 91.15625 318.15625 C88.77592046 320.19160424 86.48762275 322.31207012 84.1875 324.4375 C79.0548511 329.04831661 73.70147326 333.1189205 68 337 C67.46262207 337.37205566 66.92524414 337.74411133 66.37158203 338.12744141 C49.19332478 349.90471735 29.97041398 358.9611754 9.55859375 363.23046875 C6.19870063 363.6207402 6.19870063 363.6207402 5 365 C3.45551341 365.28447149 1.90083046 365.51414477 0.34375 365.71875 C-1.06583984 365.91017578 -1.06583984 365.91017578 -2.50390625 366.10546875 C-4.50130208 366.36848958 -6.49869792 366.63151042 -8.49609375 366.89453125 C-9.90568359 367.08595703 -9.90568359 367.08595703 -11.34375 367.28125 C-12.21193359 367.39533203 -13.08011719 367.50941406 -13.97460938 367.62695312 C-15.98909362 367.79998514 -15.98909362 367.79998514 -17 369 C-69.9898466 372.33205971 -120.14331645 358.12516835 -160.5 322.99609375 C-176.96588376 308.28944706 -190.63166721 291.52335004 -201 272 C-201 271.34 -201 270.68 -201 270 C-201.66 270 -202.32 270 -203 270 C-204.15221614 267.24423883 -205.30038741 264.48698768 -206.44140625 261.7265625 C-207.50390866 259.16643113 -208.59971601 256.62355592 -209.71484375 254.0859375 C-217.01878447 237.2597478 -220.77964479 220.16541077 -223 202 C-223.13277344 200.93652344 -223.26554687 199.87304688 -223.40234375 198.77734375 C-226.44657593 169.12735633 -221.35336374 139.44338538 -210 112 C-209.71817871 111.29697754 -209.43635742 110.59395508 -209.14599609 109.86962891 C-199.25075779 85.32003991 -182.82296473 60.73111577 -162 44 C-161.34 44 -160.68 44 -160 44 C-159.67 43.01 -159.34 42.02 -159 41 C-157.61157227 39.640625 -157.61157227 39.640625 -155.81640625 38.25 C-155.14577148 37.72954102 -154.47513672 37.20908203 -153.78417969 36.67285156 C-153.05102539 36.12081055 -152.31787109 35.56876953 -151.5625 35 C-150.79969727 34.42475586 -150.03689453 33.84951172 -149.25097656 33.25683594 C-107.54092287 2.29415804 -51.20339627 -11.84756334 0 0 Z M-149 85.0625 C-172.51910119 111.60656597 -185.16164298 146.02596253 -185.3125 181.25 C-185.31830078 182.50570801 -185.32410156 183.76141602 -185.33007812 185.05517578 C-185.2657159 193.20665148 -184.45543754 200.98482528 -183 209 C-182.71310303 210.67002075 -182.71310303 210.67002075 -182.42041016 212.3737793 C-175.88701194 249.07369616 -152.93092603 282.94037565 -122.62915039 304.29272461 C-110.23206713 312.73726079 -97.24545088 319.33490916 -83 324 C-81.8759375 324.37769531 -80.751875 324.75539063 -79.59375 325.14453125 C-41.93248216 336.89167905 -1.82750049 331.70965067 32.9375 313.6875 C45.1232715 307.08831213 56.01328889 298.57203798 66 289 C66.74507812 288.30648437 67.49015625 287.61296875 68.2578125 286.8984375 C89.77873664 266.27734294 103.06019501 237.95163227 109 209 C109.30744141 207.515 109.30744141 207.515 109.62109375 206 C115.90418134 169.94807674 106.63969674 131.91495005 86.9375 101.4375 C85.64839084 99.60828977 84.33671645 97.79471492 83 96 C82.37351562 95.15179688 81.74703125 94.30359375 81.1015625 93.4296875 C69.01983265 77.92248635 54.78543256 65.18226112 38 55 C37.28875977 54.56719727 36.57751953 54.13439453 35.84472656 53.68847656 C-25.65113406 17.05570606 -101.4467786 35.46153222 -149 85.0625 Z " fill="#F7D759" transform="translate(293,73)"/>
<path d="M0 0 C1.21171875 0.33644531 2.4234375 0.67289062 3.671875 1.01953125 C40.65100737 12.24817337 70.70377765 40.39384111 88.75 73.9375 C94.92184548 85.86013795 99.05053587 97.92380992 102 111 C102.18771973 111.82661133 102.37543945 112.65322266 102.56884766 113.50488281 C110.71188407 151.23712575 101.41416699 190.71890604 81 223 C75.07786989 231.70324094 68.22824021 239.39075315 61 247 C60.08734375 248.02673828 60.08734375 248.02673828 59.15625 249.07421875 C36.35008082 273.79817942 -1.65692055 288.91173278 -34.82421875 290.41015625 C-54.64593441 290.86569938 -73.23728423 288.33047023 -92 282 C-93.6396875 281.46439453 -93.6396875 281.46439453 -95.3125 280.91796875 C-109.21958264 275.99833827 -122.51103284 268.20819442 -134 259 C-134.50837402 258.59700684 -135.01674805 258.19401367 -135.54052734 257.77880859 C-165.34973026 233.99762931 -186.18587687 198.6918633 -190.54296875 160.515625 C-194.37013095 120.11905993 -184.86566405 80.9869986 -158.9765625 49.23046875 C-156.06543479 45.74584659 -153.05259852 42.36067962 -150 39 C-149.35933594 38.27554688 -148.71867187 37.55109375 -148.05859375 36.8046875 C-137.11198451 25.09891744 -123.15066582 16.28299075 -109 9 C-108.37770508 8.66766357 -107.75541016 8.33532715 -107.11425781 7.99291992 C-101.8695623 5.25412572 -96.49174015 3.27768829 -90.875 1.4375 C-89.95066162 1.13376465 -89.02632324 0.8300293 -88.07397461 0.51708984 C-59.39403153 -8.72580641 -28.84673528 -8.22843683 0 0 Z M-93 28 C-93 51.43 -93 74.86 -93 99 C-116.43 99 -139.86 99 -164 99 C-164 130.35 -164 161.7 -164 194 C-140.57 194 -117.14 194 -93 194 C-93 217.43 -93 240.86 -93 265 C-61.65 265 -30.3 265 2 265 C2 241.57 2 218.14 2 194 C25.43 194 48.86 194 73 194 C73 162.65 73 131.3 73 99 C49.57 99 26.14 99 2 99 C2 75.57 2 52.14 2 28 C-29.35 28 -60.7 28 -93 28 Z " fill="#3972A0" transform="translate(299,114)"/>
<path d="M0 0 C21.12 0 42.24 0 64 0 C64 21.12 64 42.24 64 64 C42.88 64 21.76 64 0 64 C0 42.88 0 21.76 0 0 Z " fill="#39729F" transform="translate(224,308)"/>
<path d="M0 0 C21.12 0 42.24 0 64 0 C64 21.12 64 42.24 64 64 C42.88 64 21.76 64 0 64 C0 42.88 0 21.76 0 0 Z " fill="#3A729F" transform="translate(146,230)"/>
<path d="M0 0 C21.12 0 42.24 0 64 0 C64 21.12 64 42.24 64 64 C42.88 64 21.76 64 0 64 C0 42.88 0 21.76 0 0 Z " fill="#3B739F" transform="translate(301,228)"/>
<path d="M0 0 C21.12 0 42.24 0 64 0 C64 21.12 64 42.24 64 64 C42.88 64 21.76 64 0 64 C0 42.88 0 21.76 0 0 Z " fill="#3A739F" transform="translate(224,149)"/>
<path d="M0 0 C18.81 0 37.62 0 57 0 C57 18.15 57 36.3 57 55 C52.96404808 52.30936539 50.20038726 50.44672659 46.9765625 47.13671875 C45.90921875 46.05293945 45.90921875 46.05293945 44.8203125 44.94726562 C44.09585938 44.20154297 43.37140625 43.45582031 42.625 42.6875 C37.87101393 37.81808441 33.07778652 33.12645403 27.91552734 28.69067383 C24.79732352 25.93849928 21.90809658 22.97068943 19 20 C14.16788038 15.11113811 9.23439134 10.45843885 4 6 C1.5 3.6875 1.5 3.6875 0 2 C0 1.34 0 0.68 0 0 Z " fill="#F9DA5B" transform="translate(134,324)"/>
<path d="M0 0 C19.02663364 -0.10543318 37.999065 -0.16036244 57 1 C54.73654406 3.92917828 52.55801706 6.53899301 49.6875 8.875 C45.39582182 12.53057578 41.46131451 16.49537914 37.5 20.5 C29.6556852 28.42152825 29.6556852 28.42152825 26 31.5 C23.37775371 33.75078397 20.88668585 36.06667938 18.46875 38.53515625 C17.81777344 39.19386719 17.16679687 39.85257812 16.49609375 40.53125 C15.20209874 41.84803553 13.91272845 43.16938813 12.62890625 44.49609375 C8.39119007 48.81444301 3.93952781 52.50711773 -1 56 C-1.22991094 37.32612274 -0.55355188 18.66323712 0 0 Z " fill="#FBDB5B" transform="translate(315,322)"/>
<path d="M0 0 C4.29303534 3.67974458 8.32389518 7.198194 12.29272461 11.16333008 C12.77167175 11.6405249 13.2506189 12.11771973 13.74407959 12.609375 C15.29932977 14.16028435 16.85096543 15.71474965 18.40234375 17.26953125 C19.49078536 18.35729825 20.57937529 19.44491685 21.66810608 20.53239441 C23.93474235 22.79756485 26.19958084 25.06451321 28.46313477 27.33276367 C31.37072187 30.24608849 34.28283087 33.15484571 37.19626522 36.06232166 C39.43788416 38.30033962 41.67713156 40.54071812 43.91565132 42.78183556 C44.9894723 43.85632498 46.06404036 44.9300683 47.13935661 46.00306129 C48.63300887 47.49419025 50.12344596 48.98845823 51.61303711 50.48364258 C52.46240341 51.33380447 53.31176971 52.18396637 54.18687439 53.05989075 C56 55 56 55 56 56 C37.52 56 19.04 56 0 56 C0 37.52 0 19.04 0 0 Z " fill="#FDDD5A" transform="translate(315,143)"/>
<path d="M0 0 C0 18.15 0 36.3 0 55 C-18.48 55 -36.96 55 -56 55 C-52.35422903 50.74660054 -48.86618362 46.73885855 -44.94433594 42.79907227 C-44.47850098 42.32987869 -44.01266602 41.86068512 -43.53271484 41.37727356 C-42.01918934 39.85438257 -40.50204849 38.33516272 -38.984375 36.81640625 C-37.92149783 35.75031083 -36.85869389 34.68414239 -35.79595947 33.61790466 C-33.58220966 31.39820299 -31.36643946 29.18054111 -29.14941406 26.96411133 C-26.30395693 24.11875661 -23.46548762 21.26653664 -20.62865829 18.41258335 C-18.44282713 16.21567019 -16.25250326 14.02328 -14.06085968 11.83216667 C-13.01143086 10.78155578 -11.96362784 9.72931834 -10.91747284 8.67544746 C-9.46235315 7.21058739 -8.00110433 5.75213132 -6.53808594 4.29516602 C-5.70790955 3.46356461 -4.87773315 2.6319632 -4.0223999 1.77516174 C-2 0 -2 0 0 0 Z " fill="#FCDC5A" transform="translate(192,144)"/>
<path d="M0 0 C1.74593458 2.61890187 2.5793104 4.40980757 3.5078125 7.34375 C3.77207031 8.17777344 4.03632813 9.01179687 4.30859375 9.87109375 C4.57800781 10.73863281 4.84742188 11.60617188 5.125 12.5 C5.40214844 13.36753906 5.67929687 14.23507813 5.96484375 15.12890625 C8 21.61534021 8 21.61534021 8 25 C16.25 25 24.5 25 33 25 C27.42272127 30.57727873 27.42272127 30.57727873 24.6328125 32.39453125 C24.05789063 32.79349609 23.48296875 33.19246094 22.890625 33.60351562 C21.70289788 34.41679338 20.50185071 35.21091779 19.2890625 35.98632812 C17.29247231 37.31480566 17.29247231 37.31480566 15 40 C14.96091702 43.16897795 15.16250402 45.04842004 16 48 C16.19513184 48.69552979 16.39026367 49.39105957 16.59130859 50.10766602 C17.22724194 52.21318708 17.91428275 54.29361378 18.625 56.375 C19.48982975 58.90968718 20.27346329 61.41872731 21 64 C20.67 64.66 20.34 65.32 20 66 C19.47567383 65.57066162 18.95134766 65.14132324 18.41113281 64.69897461 C16.0345584 62.76518303 13.64270135 60.8512941 11.25 58.9375 C10.425 58.26138672 9.6 57.58527344 8.75 56.88867188 C7.95078125 56.25380859 7.1515625 55.61894531 6.328125 54.96484375 C5.22839355 54.07720337 5.22839355 54.07720337 4.10644531 53.17163086 C2.10398504 51.80603633 2.10398504 51.80603633 -0.03173828 52.14672852 C-2.23083283 53.10006955 -3.92205902 54.22309185 -5.8203125 55.6875 C-6.52027344 56.22117187 -7.22023437 56.75484375 -7.94140625 57.3046875 C-8.66199219 57.86414063 -9.38257813 58.42359375 -10.125 59 C-11.56412056 60.10544836 -13.00418087 61.20967469 -14.4453125 62.3125 C-15.39688232 63.04919922 -15.39688232 63.04919922 -16.36767578 63.80078125 C-18 65 -18 65 -20 66 C-18.67378557 59.4794457 -16.875027 53.242327 -14.8046875 46.91796875 C-13.82276914 43.86180473 -13.82276914 43.86180473 -14 40 C-15.6624061 38.27869075 -15.6624061 38.27869075 -17.9375 36.8359375 C-18.74960938 36.27132812 -19.56171875 35.70671875 -20.3984375 35.125 C-21.68621094 34.25875 -21.68621094 34.25875 -23 33.375 C-24.69147358 32.22195345 -26.37920186 31.06338669 -28.0625 29.8984375 C-28.81660156 29.38974121 -29.57070312 28.88104492 -30.34765625 28.35693359 C-30.89292969 27.90914551 -31.43820313 27.46135742 -32 27 C-32 26.34 -32 25.68 -32 25 C-23.75 25 -15.5 25 -7 25 C-6.67 22.69 -6.34 20.38 -6 18 C-5.57806353 16.44576655 -5.11244849 14.90224347 -4.58984375 13.37890625 C-4.32236328 12.58935547 -4.05488281 11.79980469 -3.77929688 10.98632812 C-3.36260742 9.7865332 -3.36260742 9.7865332 -2.9375 8.5625 C-2.65583984 7.73556641 -2.37417969 6.90863281 -2.08398438 6.05664062 C-1.39482208 4.03587662 -0.6981769 2.01766718 0 0 Z " fill="#3D749E" transform="translate(254,223)"/>
<path d="M0 0 C0.68578125 -0.00708984 1.3715625 -0.01417969 2.078125 -0.02148438 C6.77050088 0.03672258 10.02054293 0.98046447 14 3.4375 C18.86233403 8.82549176 19.36813584 12.25367253 19.265625 19.38671875 C18.86330144 24.00752315 18.04019344 25.87824914 15 29.4375 C8.72168691 33.88408538 1.47244752 34.58632527 -6 33.4375 C-10.85481765 31.7244993 -13.96159386 29.09365247 -16.5 24.625 C-18.57430846 19.68925711 -18.96575579 15.4107257 -17.3046875 10.296875 C-13.84978989 2.45803168 -8.50066226 -0.24766967 0 0 Z " fill="#F5D147" transform="translate(333,245.5625)"/>
<path d="M0 0 C2.31 0 4.62 0 7 0 C7 4.62 7 9.24 7 14 C12.28 14 17.56 14 23 14 C23 9.38 23 4.76 23 0 C25.31 0 27.62 0 30 0 C30 12.21 30 24.42 30 37 C27.69 37 25.38 37 23 37 C23 31.39 23 25.78 23 20 C17.72 20 12.44 20 7 20 C7 25.61 7 31.22 7 37 C4.69 37 2.38 37 0 37 C0 24.79 0 12.58 0 0 Z " fill="#F6D146" transform="translate(241,164)"/>
<path d="M0 0 C9.27394893 0.58882215 18.0146265 2.75886856 27 5 C27 7.64 27 10.28 27 13 C21.39 14.65 15.78 16.3 10 18 C15.6566924 19.70475661 21.31470787 21.39328701 27 23 C27 25.64 27 28.28 27 31 C23.0639449 32.00574701 19.12593326 33.00361005 15.1875 34 C14.06794922 34.28617187 12.94839844 34.57234375 11.79492188 34.8671875 C10.72177734 35.13789063 9.64863281 35.40859375 8.54296875 35.6875 C7.55321045 35.93886719 6.56345215 36.19023437 5.54370117 36.44921875 C3 37 3 37 0 37 C0 34.69 0 32.38 0 30 C0.98742187 29.79503906 1.97484375 29.59007812 2.9921875 29.37890625 C4.27351562 29.10949219 5.55484375 28.84007812 6.875 28.5625 C8.15117187 28.29566406 9.42734375 28.02882813 10.7421875 27.75390625 C13.86460244 27.1652174 13.86460244 27.1652174 16 26 C15.01257813 25.72285156 14.02515625 25.44570313 13.0078125 25.16015625 C11.71351203 24.79437568 10.41924281 24.42848451 9.125 24.0625 C8.47402344 23.88009766 7.82304687 23.69769531 7.15234375 23.50976562 C2.2265625 22.11328125 2.2265625 22.11328125 0 21 C0 19.02 0 17.04 0 15 C5.28 13.35 10.56 11.7 16 10 C10.72 8.68 5.44 7.36 0 6 C0 4.02 0 2.04 0 0 Z " fill="#F4D047" transform="translate(168,244)"/>
<path d="M0 0 C2.64 0 5.28 0 8 0 C8 9.9 8 19.8 8 30 C11.3 30 14.6 30 18 30 C18 31.98 18 33.96 18 36 C8.76 36 -0.48 36 -10 36 C-10 34.02 -10 32.04 -10 30 C-6.7 30 -3.4 30 0 30 C0 20.1 0 10.2 0 0 Z " fill="#ECCC4B" transform="translate(252,322)"/>
<path d="M0 0 C1.11503906 0.01289063 2.23007812 0.02578125 3.37890625 0.0390625 C6.31878096 0.36196062 8.00866933 0.73374934 10.4375 2.375 C12.91539715 6.09184573 13.18292231 9.06997677 12.4375 13.375 C10.8125 16.375 10.8125 16.375 7.4375 18.375 C1.51384831 19.17377403 -4.19309839 19.78322926 -9.4609375 16.65234375 C-11.90228045 14.00679925 -12.24159219 12.92344751 -12.1875 9.375 C-12.20039063 8.529375 -12.21328125 7.68375 -12.2265625 6.8125 C-10.5661889 0.71795219 -5.64533988 -0.14391365 0 0 Z " fill="#3A739F" transform="translate(333.5625,252.625)"/>
<path d="M0 0 C0.66 0.33 1.32 0.66 2 1 C1.57291748 1.41137207 1.14583496 1.82274414 0.70581055 2.24658203 C-19.0069517 21.33232446 -32.59188882 41.58911161 -45 66 C-46.21248095 62.36255715 -45.39777896 61.17854972 -43.75317383 57.86132812 C-43.40150146 57.18521484 -43.0498291 56.50910156 -42.6875 55.8125 C-42.32358154 55.10416016 -41.95966309 54.39582031 -41.5847168 53.66601562 C-30.77500712 32.99253154 -16.76037694 16.13447075 0 0 Z " fill="#393A49" transform="translate(131,117)"/>
<path d="M0 0 C15.45235252 6.10822406 28.08186697 30.68696708 35.375 44.4375 C35.85783447 45.34371094 36.34066895 46.24992187 36.83813477 47.18359375 C37.27053467 48.02921875 37.70293457 48.87484375 38.1484375 49.74609375 C38.53177246 50.49560303 38.91510742 51.2451123 39.31005859 52.01733398 C40 54 40 54 39 57 C38.73896484 56.48727539 38.47792969 55.97455078 38.20898438 55.44628906 C28.28754367 36.04648425 16.72796577 18.91392932 1.80078125 3.01171875 C0 1 0 1 0 0 Z " fill="#40404E" transform="translate(385,123)"/>
<path d="M0 0 C0.66 0.33 1.32 0.66 2 1 C-13.25357934 11.91312993 -34.10582533 23.76790948 -53 26 C-54.34089388 25.69851618 -55.67623956 25.36952291 -57 25 C-56.27111572 24.76925781 -55.54223145 24.53851563 -54.79125977 24.30078125 C-36.17093686 18.36433428 -18.78248145 12.19015355 -2.44140625 1.37109375 C-1.63574219 0.91863281 -0.83007812 0.46617187 0 0 Z " fill="#3E3E4A" transform="translate(357,410)"/>
<path d="M0 0 C-1.05316406 0.53367187 -2.10632813 1.06734375 -3.19140625 1.6171875 C-18.24377649 9.3490157 -31.75343583 18.50103683 -45 29 C-45 26 -45 26 -43.72509766 24.640625 C-43.12745605 24.18171875 -42.52981445 23.7228125 -41.9140625 23.25 C-41.23907715 22.72905762 -40.5640918 22.20811523 -39.86865234 21.67138672 C-39.12824707 21.1198291 -38.3878418 20.56827148 -37.625 20 C-36.86783691 19.42910645 -36.11067383 18.85821289 -35.33056641 18.27001953 C-7.36836565 -2.45612188 -7.36836565 -2.45612188 0 0 Z " fill="#474651" transform="translate(179,88)"/>
<path d="M0 0 C11.8916089 3.62970621 26.0084844 13.5127266 33 24 C29.35873003 22.42975537 26.77548831 20.17444315 23.8125 17.5625 C18.06143947 12.59911684 11.87241187 8.51275655 5.43676758 4.49243164 C3.61124 3.34921192 1.8036188 2.17748099 0 1 C0 0.67 0 0.34 0 0 Z " fill="#3F3F48" transform="translate(348,95)"/>
<path d="M0 0 C4.23786211 1.61200975 6.90208957 4.78475921 9.875 8.0625 C10.40512695 8.64088623 10.93525391 9.21927246 11.48144531 9.81518555 C15.47506381 14.24633477 18.96684353 18.85161599 22 24 C21.34 24.33 20.68 24.66 20 25 C19.39414062 24.18917969 18.78828125 23.37835938 18.1640625 22.54296875 C13.02084816 15.72536391 7.68365705 9.2724472 1.8359375 3.046875 C0 1 0 1 0 0 Z " fill="#4A4957" transform="translate(385,123)"/>
<path d="M0 0 C-2.74959541 1.45909711 -5.49974721 2.91714242 -8.25 4.375 C-9.02730469 4.7875 -9.80460938 5.2 -10.60546875 5.625 C-11.73662109 6.22441406 -11.73662109 6.22441406 -12.890625 6.8359375 C-13.92751465 7.38580322 -13.92751465 7.38580322 -14.98535156 7.94677734 C-16.97869154 8.98886031 -18.98505537 10.00042943 -21 11 C-21.33 10.34 -21.66 9.68 -22 9 C-19.39761208 7.51762714 -16.79321772 6.03899869 -14.1875 4.5625 C-13.44951172 4.14162109 -12.71152344 3.72074219 -11.95117188 3.28710938 C-11.23896484 2.88427734 -10.52675781 2.48144531 -9.79296875 2.06640625 C-9.1383667 1.69459229 -8.48376465 1.32277832 -7.80932617 0.93969727 C-4.65042806 -0.70091788 -3.45895967 -1.15298656 0 0 Z " fill="#4E4E5E" transform="translate(179,88)"/>
<path d="M0 0 C-6.88728717 4.59152478 -15.82024199 6.35845035 -24 7 C-20.19612847 4.46408565 -16.31371331 3.25379572 -12 1.8125 C-11.18015625 1.52697266 -10.3603125 1.24144531 -9.515625 0.94726562 C-8.72671875 0.68236328 -7.9378125 0.41746094 -7.125 0.14453125 C-6.40570313 -0.09934326 -5.68640625 -0.34321777 -4.9453125 -0.59448242 C-3 -1 -3 -1 0 0 Z " fill="#4A484C" transform="translate(324,429)"/>
<path d="M0 0 C0 5.05045815 -3.77351632 8.32271022 -7 12 C-8.93045331 13.82157742 -10.8788999 15.39624139 -13 17 C-13 14 -13 14 -11.42578125 12.16796875 C-10.72839844 11.51441406 -10.03101563 10.86085938 -9.3125 10.1875 C-5.94109659 6.94783882 -2.91888895 3.64861118 0 0 Z " fill="#4B4950" transform="translate(401,370)"/>
<path d="M0 0 C0.66 0.33 1.32 0.66 2 1 C-0.31 3.31 -2.62 5.62 -5 8 C-5.33 7.34 -5.66 6.68 -6 6 C-4 4 -2 2 0 0 Z " fill="#E2C750" transform="translate(323,247)"/>
</svg>
